<mxfile host="app.diagrams.net" modified="2024-04-11T06:49:23.456Z" agent="Mozilla/5.0 (X11; Linux x86_64) AppleWebKit/537.36 (KHTML, like Gecko) Chrome/120.0.0.0 Safari/537.36" version="24.2.3" etag="oQfL_0QbWskzSKWW8l6b" type="github">
  <diagram name="Page-1" id="CweI0luJGcP2KyWuTcMj">
    <mxGraphModel>
      <root>
        <mxCell id="0" />
        <mxCell id="1" parent="0" />
      </root>
    </mxGraphModel>
  </diagram>
</mxfile>
